<?xml version="1.0" standalone="no"?><svg xmlns="http://www.w3.org/2000/svg" viewBox="0 0 1440 320"><path fill="#e7008a" fill-opacity="1" d="M0,224L12.6,192C25.3,160,51,96,76,58.7C101.1,21,126,11,152,42.7C176.8,75,202,149,227,181.3C252.6,213,278,203,303,170.7C328.4,139,354,85,379,69.3C404.2,53,429,75,455,106.7C480,139,505,181,531,202.7C555.8,224,581,224,606,208C631.6,192,657,160,682,160C707.4,160,733,192,758,202.7C783.2,213,808,203,834,170.7C858.9,139,884,85,909,69.3C934.7,53,960,75,985,112C1010.5,149,1036,203,1061,202.7C1086.3,203,1112,149,1137,128C1162.1,107,1187,117,1213,117.3C1237.9,117,1263,107,1288,96C1313.7,85,1339,75,1364,101.3C1389.5,128,1415,192,1427,224L1440,256L1440,0L1427.4,0C1414.7,0,1389,0,1364,0C1338.9,0,1314,0,1288,0C1263.2,0,1238,0,1213,0C1187.4,0,1162,0,1137,0C1111.6,0,1086,0,1061,0C1035.8,0,1011,0,985,0C960,0,935,0,909,0C884.2,0,859,0,834,0C808.4,0,783,0,758,0C732.6,0,707,0,682,0C656.8,0,632,0,606,0C581.1,0,556,0,531,0C505.3,0,480,0,455,0C429.5,0,404,0,379,0C353.7,0,328,0,303,0C277.9,0,253,0,227,0C202.1,0,177,0,152,0C126.3,0,101,0,76,0C50.5,0,25,0,13,0L0,0Z"></path></svg>